<svg xmlns="http://www.w3.org/2000/svg" xml:space="preserve" baseProfile="tiny" overflow="visible" version="1.2" viewBox="0 0 40 40"><g fill="#EA5504"><path d="M17.8 25.8c0-.5 0-.9.1-1.4-.8.2-1.6.3-2.5.3-5.1 0-9-3.6-9-9.1 0-1.4.2-2.7.6-3.8L.7 18.1c-1 1-1 2.7 0 3.7l17.4 17.4c1 1 2.7 1 3.7 0l4.3-4.3c-4.7-.3-8.3-3.8-8.3-9.1z"/><path d="M39.2 18.2 21.8.8c-1-1-2.7-1-3.7 0L11.9 7c1.1-.4 2.2-.6 3.5-.6 3 0 5.5 1.2 7.5 3l-2.4 2.4c-1.7-1.4-3.2-2.1-5.1-2.1-2.8 0-5 2.2-5 5.8 0 3.4 2.1 5.9 5.2 5.9 1.9 0 3.4-.9 4.7-2.2 1.8-1.8 3.9-2.7 6.6-2.7 3 0 5.5 1.2 7.5 3L31.8 22c-1.7-1.4-3.2-2.1-5.1-2.1-2.8 0-5.1 2.2-5.1 5.8 0 3.4 2.1 5.9 5.2 5.9 1.9 0 3.4-.9 4.7-2.2l7.6-7.6c1.2-1 1.2-2.6.1-3.6z"/></g></svg>
